# xmcd
#
# Track frame offsets:
#	150
#	15654
#	30388
#	43427
#	65299
#	78840
#	95788
#	109310
#	127834
#	141227
#	157263
#	174534
#	191803
#	205786
#	221032
#	234323
#	250566
#	269315
#	288590
#	304256
#
# Disc length: 4222 seconds
#
# Revision: 1
# Processed by: cddbd v1.4PL0 Copyright (c) Steve Scherf et al.
# Submitted via: audiograbber 1.80
#
DISCID=25107c14
DTITLE=Krunoslav Slabinac - Sve najbolje
DYEAR=1900
DGENRE=
TTITLE0=Balada o zeni i djetetu
TTITLE1=Bila si djevojcica
TTITLE2=Budi sto jesi
TTITLE3=Da sam tvoje oci slusao majko
TTITLE4=Dajem ti svoju rijec
TTITLE5=Dan koji se pamti
TTITLE6=Ljubavi ljubavi lijepo ti je ime
TTITLE7=Oboje smo krivi
TTITLE8=Ostavljas me samog
TTITLE9=Plavusa
TTITLE10=Pusti nocas svoje kose
TTITLE11=Ti ne znas koliko te volim
TTITLE12=Tko ce te tako zavoljeti
TTITLE13=Tri slatke rijeci
TTITLE14=Tvoj djecak je tuzan
TTITLE15=U dugim nocima
TTITLE16=Vise neces biti moja
TTITLE17=Zbog jedne divne crne zene
TTITLE18=Zivim svoj zivot
TTITLE19=Zivot bez tebe
EXTD=
EXTT0=
EXTT1=
EXTT2=
EXTT3=
EXTT4=
EXTT5=
EXTT6=
EXTT7=
EXTT8=
EXTT9=
EXTT10=
EXTT11=
EXTT12=
EXTT13=
EXTT14=
EXTT15=
EXTT16=
EXTT17=
EXTT18=
EXTT19=
PLAYORDER=
